<?xml version="1.0" encoding="UTF-8" standalone="no"?>
<!-- Created with Inkscape (http://www.inkscape.org/) -->

<svg
   width="210mm"
   height="210mm"
   viewBox="0 0 210 210"
   version="1.1"
   id="svg1"
   inkscape:version="1.3.2 (091e20ef0f, 2023-11-25, custom)"
   sodipodi:docname="delete.svg"
   xmlns:inkscape="http://www.inkscape.org/namespaces/inkscape"
   xmlns:sodipodi="http://sodipodi.sourceforge.net/DTD/sodipodi-0.dtd"
   xmlns="http://www.w3.org/2000/svg"
   xmlns:svg="http://www.w3.org/2000/svg">
  <sodipodi:namedview
     id="namedview1"
     pagecolor="#505050"
     bordercolor="#eeeeee"
     borderopacity="1"
     inkscape:showpageshadow="0"
     inkscape:pageopacity="0"
     inkscape:pagecheckerboard="0"
     inkscape:deskcolor="#505050"
     inkscape:document-units="mm"
     showgrid="true"
     inkscape:zoom="1.0985947"
     inkscape:cx="429.63978"
     inkscape:cy="308.57603"
     inkscape:window-width="1920"
     inkscape:window-height="1138"
     inkscape:window-x="0"
     inkscape:window-y="0"
     inkscape:window-maximized="1"
     inkscape:current-layer="layer1">
    <inkscape:grid
       id="grid1"
       units="mm"
       originx="0"
       originy="0"
       spacingx="0.99999998"
       spacingy="0.99999998"
       empcolor="#0099e5"
       empopacity="0.30196078"
       color="#0099e5"
       opacity="0.14901961"
       empspacing="5"
       dotted="false"
       gridanglex="30"
       gridanglez="30"
       visible="true" />
  </sodipodi:namedview>
  <defs
     id="defs1" />
  <g
     inkscape:label="Ebene 1"
     inkscape:groupmode="layer"
     id="layer1">
    <g
       id="path1"
       transform="matrix(1.0034194,0,0,1.0034194,-2.276442,-8.5644293)">
      <path
         style="color:#000000;fill:#ffffff;stroke-linecap:round;stroke-linejoin:round;stroke-miterlimit:0;-inkscape-stroke:none;paint-order:markers stroke fill"
         d="m 52.5,87.546875 c -4.732149,0.0011 -8.280895,4.330315 -7.353516,8.970703 l 20,100.000002 c 0.314263,0.66084 0.723548,1.27214 1.214844,1.81445 0.367473,0.86072 0.892793,1.64505 1.548828,2.3125 0.783338,0.51292 1.655794,0.87462 2.572266,1.06641 0.628138,0.37559 1.307868,0.65722 2.017578,0.83593 h 65 c 3.57474,-7.1e-4 6.65225,-2.52401 7.35352,-6.02929 l 20,-100.000002 C 165.7809,91.877188 162.23215,87.548 157.5,87.546875 Z m 9.564221,15.664635 86.287339,-0.66463 -17,84.99999 H 78.648437 Z"
         id="path4"
         sodipodi:nodetypes="ccccccccccccccccc" />
      <path
         style="color:#000000;fill:#ffffff;stroke-linecap:round;stroke-linejoin:round;stroke-miterlimit:0;-inkscape-stroke:none;paint-order:markers stroke fill"
         d="M 72.500002,195.04632 H 137.5 l 20,-100 h -105 l 20.000002,100"
         id="path5" />
    </g>
    <path
       style="fill:#ffffff;stroke:#ffffff;stroke-width:15.7212;stroke-linecap:round;stroke-linejoin:round;stroke-miterlimit:0;paint-order:markers stroke fill"
       d="M 31.634618,60.43217 H 178.36538 L 157.40384,49.951402 120.72115,44.711017 115.48077,23.74948 H 94.519233 l -5.240386,20.961537 -36.682691,5.240385 z"
       id="path2"
       sodipodi:nodetypes="ccccccccc" />
  </g>
</svg>
